# xmcd CD database file
#
# Track frame offsets:
#	150
#	19392
#	36818
#	52768
#	69701
#	85299
#	101800
#	118656
#	134087
#	149458
#	166225
#	182725
#	197005
#	214111
#	231305
#
# Disc length: 3316 seconds
#
# Revision: 0
# Processed by: cddbd v1.5.2PL0 Copyright (c) Steve Scherf et al.
# Submitted via: CDex 1.51
#
DISCID=e00cf20f
DTITLE=Jason Michael Carroll - What Color Is Your Sky
DYEAR=2015
DGENRE=Country
TTITLE0=All I'm Drinking 'Bout
TTITLE1=God Only Knows
TTITLE2=What Color Is Your Sky
TTITLE3=Here's To
TTITLE4=Love Like July
TTITLE5=Does He Know
TTITLE6='Til The Speakers Blow
TTITLE7=Civil War
TTITLE8=Urgency
TTITLE9=Blown Away
TTITLE10=We Ride
TTITLE11=Close Enough
TTITLE12=Here With Me
TTITLE13=Painting Pictures
TTITLE14=Waste Their Life (Demo Version)
EXTD=YEAR: 2015
EXTT0=
EXTT1=
EXTT2=
EXTT3=
EXTT4=
EXTT5=
EXTT6=
EXTT7=
EXTT8=
EXTT9=
EXTT10=
EXTT11=
EXTT12=
EXTT13=
EXTT14=
PLAYORDER=
